<?xml version="1.0" encoding="utf-8"?>
<!-- Generator: Adobe Illustrator 25.0.1, SVG Export Plug-In . SVG Version: 6.00 Build 0)  -->
<svg version="1.1" id="Layer_1" xmlns="http://www.w3.org/2000/svg" xmlns:xlink="http://www.w3.org/1999/xlink" x="0px" y="0px"
	 width="339.04px" height="64.7px" viewBox="0 0 339.04 64.7" enable-background="new 0 0 339.04 64.7" xml:space="preserve">
<g id="XMLID_416_">
	<path id="XMLID_437_" fill="#FFFFFF" d="M0,2.62h45.43v9.76h-34.7v16.66h25.61v9.76H10.73v24.86H0V2.62z"/>
	<path id="XMLID_435_" fill="#FFFFFF" d="M97.8,17.61h10.55v10.38c2.88-6.89,8.2-11.6,16.31-11.25V27.9h-0.61
		c-9.25,0-15.7,6.02-15.7,18.23v17.53H97.8V17.61z"/>
	<path id="XMLID_433_" fill="#FFFFFF" d="M129.96,17.61V4.97h10.55v12.64h12.38v9.07h-12.38v22.58c0,4.1,2.09,5.76,5.67,5.76
		c2.35,0,4.45-0.52,6.54-1.57v8.64c-2.61,1.48-5.58,2.36-9.51,2.36c-7.76,0-13.25-3.4-13.25-13.52V26.68"/>
	<path id="XMLID_430_" fill="#FFFFFF" d="M188.62,63.66v-5.67c-3.14,3.74-7.93,6.63-14.91,6.63c-8.72,0-16.4-4.97-16.4-14.22v-0.17
		c0-10.2,7.93-15.09,18.66-15.09c5.59,0,9.16,0.78,12.74,1.92v-0.88c0-6.36-4.01-9.86-11.33-9.86c-5.15,0-8.99,1.14-13.17,2.88
		l-2.88-8.46c5.06-2.27,10.03-3.84,17.53-3.84c13.61,0,20.23,7.15,20.23,19.45v27.3H188.62z M188.88,44.39
		c-2.7-1.05-6.45-1.84-10.55-1.84c-6.63,0-10.55,2.71-10.55,7.15v0.17c0,4.36,3.92,6.81,8.89,6.81c6.98,0,12.21-3.93,12.21-9.68
		V44.39z"/>
	<path id="XMLID_428_" fill="#FFFFFF" d="M209.15,0h10.55v63.66h-10.55V0z"/>
	<path id="XMLID_425_" fill="#FFFFFF" d="M229.94,0.53h11.33v10.02h-11.33V0.53z M230.37,17.61h10.56v46.05h-10.56V17.61z"/>
	<path id="XMLID_423_" fill="#FFFFFF" d="M248.61,40.9v-0.18c0-13.08,10.12-24.07,23.9-24.07c8.72,0,14.13,3.22,18.4,7.93
		l-6.54,7.07c-3.23-3.41-6.63-5.76-11.95-5.76c-7.67,0-13.25,6.63-13.25,14.65v0.18c0,8.2,5.67,14.82,13.78,14.82
		c4.97,0,8.63-2.36,11.95-5.76l6.37,6.28c-4.54,5.06-9.86,8.63-18.84,8.63C258.72,64.7,248.61,53.98,248.61,40.9z"/>
	<path id="XMLID_420_" fill="#FFFFFF" d="M293.85,40.81v-0.18c0-13.17,9.33-23.98,22.5-23.98c14.65,0,22.06,11.51,22.06,24.76
		c0,0.96-0.09,1.92-0.17,2.97H304.4c1.14,7.49,6.46,11.68,13.26,11.68c5.14,0,8.81-1.92,12.47-5.5l6.19,5.5
		c-4.36,5.23-10.38,8.63-18.84,8.63C304.14,64.7,293.85,55.02,293.85,40.81z M327.95,37.41c-0.7-6.8-4.7-12.12-11.68-12.12
		c-6.45,0-10.99,4.97-11.95,12.12H327.95z"/>
	<path id="XMLID_417_" fill="#FFFFFF" d="M67.51,16.66c-14.13,0-24.59,10.9-24.59,24.07v0.18c0,13.08,10.38,23.8,24.42,23.8
		c14.22,0,24.68-10.9,24.68-23.98v-0.18C92.01,27.38,81.64,16.66,67.51,16.66z M74.59,43.25l4.41,13.55l-11.53-8.38L55.94,56.8
		l4.4-13.55l-11.53-8.38h14.25l4.4-13.55l4.4,13.55h14.25L74.59,43.25z"/>
</g>
</svg>
