<?xml version="1.0" encoding="utf-8"?>
<!-- Generator: Adobe Illustrator 27.0.1, SVG Export Plug-In . SVG Version: 6.00 Build 0)  -->
<svg version="1.1" id="Layer_1" xmlns="http://www.w3.org/2000/svg" xmlns:xlink="http://www.w3.org/1999/xlink" x="0px" y="0px"
	 viewBox="0 0 25 27" style="enable-background:new 0 0 25 27;" xml:space="preserve">
<g id="_x31_3_Antivirus">
	<g>
		<path d="M23,6.2c-3.8-0.8-6.9-2.3-9.2-4.6c-0.7-0.7-2-0.7-2.7,0C8.7,3.8,5.6,5.4,1.8,6.2c-0.9,0.2-1.5,1-1.4,1.8
			c1.8,9.9,8.1,14.7,10.8,16.7c0.7,0.5,1.7,0.5,2.4,0C16,22.8,22.5,18,24.4,7.9C24.5,7.1,23.9,6.4,23,6.2z M12.4,22.2
			c-3.1-2.4-7.3-6.5-8.9-13.8C7,7.5,10,6,12.4,3.9c2.4,2.1,5.4,3.6,8.9,4.4C19.5,16.6,14.4,20.7,12.4,22.2z"/>
		<path d="M17.8,13.1c-0.3-0.6-0.9-1.3-1.7-1.9c-0.7-0.6-1.5-1-2.2-1.2c0.1-0.2,0.1-0.3,0.1-0.5c0-0.4-0.2-0.7-0.4-1
			c0.1-0.2,0.1-0.3,0.1-0.5V6.7c0-0.1-0.1-0.3-0.3-0.3s-0.3,0.1-0.3,0.3v1.2c0,0.1,0,0.1,0,0.2c-0.5-0.2-1-0.2-1.5,0
			c0-0.1,0-0.1,0-0.2V6.7c0-0.1-0.1-0.3-0.3-0.3c-0.2,0-0.3,0.1-0.3,0.3v1.2c0,0.2,0,0.4,0.1,0.5c-0.3,0.3-0.4,0.6-0.4,1
			c0,0.2,0,0.3,0.1,0.5c-0.7,0.2-1.5,0.6-2.2,1.2c-0.7,0.6-1.3,1.3-1.7,1.9c-0.5,0.9-0.3,1.3-0.1,1.5c0.2,0.1,0.4,0.2,0.6,0.2
			c0.6,0,1.3-0.3,2-0.8c0.2,1.8,1.2,3.2,2.6,3.4v0.5c0,0.1,0.1,0.3,0.3,0.3c0.2,0,0.3-0.1,0.3-0.3v-0.5c1.3-0.2,2.4-1.6,2.6-3.4
			c1,0.6,2.1,1.1,2.7,0.6C18.2,14.4,18.3,14,17.8,13.1z M11.7,8.7c0.4-0.3,1-0.3,1.3,0c0.3,0.2,0.4,0.4,0.4,0.7c0,0.1,0,0.2-0.1,0.3
			c-0.2-0.1-0.8-0.2-1-0.2s-0.8,0.1-1,0.2c0-0.1-0.1-0.2-0.1-0.3C11.3,9.1,11.5,8.9,11.7,8.7z M14.7,13.8c-0.1,1.7-1.1,3.1-2.3,3.1
			c0,0,0,0,0,0c-0.6,0-1.1-0.3-1.5-0.9c-0.4-0.6-0.7-1.3-0.7-2.2c0-0.1,0-0.1-0.1-0.1c0.3-0.2,0.5-0.4,0.8-0.6
			c0.8-0.7,1.3-1.6,1.5-2.2h0c0,0,0,0,0,0c0.3,0.7,0.7,1.5,1.5,2.2c0.2,0.2,0.5,0.4,0.8,0.6C14.7,13.7,14.7,13.8,14.7,13.8z"/>
	</g>
</g>
<g id="Layer_1_00000071531912171924295710000015064346727032119733_">
</g>
</svg>
