<?xml version="1.0" encoding="utf-8"?>
<!-- Generator: Adobe Illustrator 27.0.1, SVG Export Plug-In . SVG Version: 6.00 Build 0)  -->
<svg version="1.1"
	 id="svg2" xmlns:inkscape="http://www.inkscape.org/namespaces/inkscape" xmlns:sodipodi="http://sodipodi.sourceforge.net/DTD/sodipodi-0.dtd" xmlns:svg="http://www.w3.org/2000/svg" xmlns:cc="http://creativecommons.org/ns#" xmlns:dc="http://purl.org/dc/elements/1.1/" xmlns:rdf="http://www.w3.org/1999/02/22-rdf-syntax-ns#" inkscape:version="0.48.1 " sodipodi:docname="Documento nuevo 1"
	 xmlns="http://www.w3.org/2000/svg" xmlns:xlink="http://www.w3.org/1999/xlink" x="0px" y="0px" viewBox="0 0 332 330"
	 style="enable-background:new 0 0 332 330;" xml:space="preserve">
<style type="text/css">
	.st0{fill-rule:evenodd;clip-rule:evenodd;fill:#FFFFFF;stroke:#000000;stroke-width:1.1822;}
</style>
<sodipodi:namedview  bordercolor="#666666" borderopacity="1.0" id="base" inkscape:current-layer="layer1" inkscape:cx="68.888889" inkscape:cy="520" inkscape:document-units="px" inkscape:pageopacity="0.0" inkscape:pageshadow="2" inkscape:window-height="706" inkscape:window-maximized="1" inkscape:window-width="1366" inkscape:window-x="-8" inkscape:window-y="-8" inkscape:zoom="0.45" pagecolor="#ffffff" showgrid="false">
	</sodipodi:namedview>
<g id="layer1" inkscape:groupmode="layer" inkscape:label="Capa 1">
	<path id="path2996" inkscape:connector-curvature="0" class="st0" d="M163.4,9.3c-82.7,0.9-150,67.5-151.2,150.7v4.8
		c1.4,82.6,68.1,149.2,150.6,150.4c84.5,1.3,153.9-66.2,155.2-150.6C319.2,80,251.8,10.5,167.3,9.3C166,9.3,164.7,9.3,163.4,9.3
		L163.4,9.3z M150.6,70.9h29c0.9,0,1.6,0.7,1.6,1.6v73.5h73.5c0.9,0,1.6,0.7,1.6,1.6v29c0,0.9-0.7,1.6-1.6,1.6h-73.5v73.5
		c0,0.9-0.7,1.6-1.6,1.6h-29c-0.9,0-1.6-0.7-1.6-1.6v-73.5H75.4c-0.9,0-1.6-0.7-1.6-1.6v-29c0-0.9,0.7-1.6,1.6-1.6h73.5V72.5
		C148.9,71.6,149.7,70.9,150.6,70.9L150.6,70.9z"/>
</g>
</svg>
